<?xml version="1.0" standalone="no"?>
<!DOCTYPE svg PUBLIC "-//W3C//DTD SVG 20010904//EN"
 "http://www.w3.org/TR/2001/REC-SVG-20010904/DTD/svg10.dtd">
<svg version="1.0" xmlns="http://www.w3.org/2000/svg"
 width="1280.000000pt" height="1280.000000pt" viewBox="0 0 1280.000000 1280.000000"
 preserveAspectRatio="xMidYMid meet">
<metadata>
Created by potrace 1.14, written by Peter Selinger 2001-2017
</metadata>
<g transform="translate(0.000000,1280.000000) scale(0.100000,-0.100000)"
fill="#000000" stroke="none">
<path d="M3207 10854 c-1 -1 -38 -4 -82 -8 -108 -8 -145 -14 -250 -38 -92 -21
-125 -33 -125 -46 0 -4 44 -30 98 -57 275 -140 388 -255 547 -560 38 -71 87
-164 110 -205 53 -95 98 -179 165 -304 234 -444 438 -674 819 -930 341 -229
691 -371 1016 -412 33 -5 62 -9 65 -9 7 -2 108 -15 160 -21 25 -2 114 -7 198
-11 l153 -6 -51 87 c-27 48 -50 89 -50 91 0 9 -115 194 -173 280 -236 349
-773 958 -1092 1239 -50 44 -105 92 -122 108 -98 86 -325 242 -683 469 -41 26
-43 29 -19 29 81 0 434 -209 749 -444 112 -83 269 -208 316 -251 6 -5 53 -48
105 -94 117 -106 458 -446 604 -605 61 -65 118 -128 128 -138 20 -21 197 -237
227 -278 75 -99 90 -121 90 -129 0 -4 9 -16 20 -26 11 -10 20 -24 20 -32 0 -7
5 -13 10 -13 6 0 10 -4 10 -9 0 -10 79 -131 86 -131 2 0 2 6 -1 13 -2 6 -6 41
-9 77 -25 326 -202 723 -484 1085 -88 112 -334 366 -452 466 -397 338 -898
602 -1376 724 -76 20 -150 38 -164 40 -14 2 -54 9 -90 16 -73 12 -92 15 -205
25 -69 6 -263 12 -268 8z"/>
<path d="M9367 10854 c-1 -1 -40 -4 -87 -8 -576 -42 -1219 -307 -1745 -720
-109 -85 -165 -134 -270 -236 -107 -103 -195 -200 -309 -341 -57 -69 -192
-279 -248 -384 -120 -227 -196 -462 -213 -661 -4 -38 -8 -75 -11 -82 -11 -35
21 3 86 103 82 124 171 249 215 299 6 6 28 34 50 61 32 42 147 173 205 235
181 195 412 431 521 532 50 47 149 137 195 178 60 54 196 166 282 231 42 32
82 62 88 67 5 5 39 29 75 53 35 24 66 46 69 49 9 11 225 146 345 217 118 69
209 108 240 101 9 -2 -11 -20 -50 -43 -189 -115 -502 -327 -600 -406 -242
-198 -563 -515 -775 -768 -25 -29 -50 -59 -55 -65 -6 -6 -57 -67 -114 -136
-57 -69 -113 -136 -125 -150 -79 -94 -272 -369 -320 -455 -9 -16 -27 -48 -39
-70 -57 -100 -107 -194 -107 -201 0 -7 262 1 330 10 19 2 59 7 89 10 50 6 143
19 221 32 368 59 824 281 1170 569 270 226 394 391 625 830 32 61 66 121 75
135 9 14 23 39 32 55 8 17 30 59 50 95 19 36 59 110 88 165 109 206 147 262
237 345 90 84 253 189 371 238 37 16 42 37 10 46 -70 20 -264 56 -333 62 -71
6 -264 12 -268 8z"/>
<path d="M5605 8054 c-96 -14 -280 -89 -346 -142 -57 -46 -223 -197 -264 -241
-27 -29 -59 -63 -71 -75 -18 -18 -46 -52 -139 -167 -87 -109 -231 -384 -250
-479 -2 -8 -10 -43 -19 -77 -22 -84 -25 -112 -26 -228 -1 -115 3 -152 31 -255
22 -81 76 -213 90 -218 5 -2 9 -10 9 -17 0 -30 164 -260 274 -385 64 -72 375
-379 456 -450 41 -36 99 -87 130 -114 78 -69 100 -89 230 -201 63 -55 122
-106 130 -115 55 -55 51 -55 116 6 59 57 207 191 278 252 l38 33 -23 20 c-91
79 -333 295 -389 346 l-45 42 530 0 530 -1 -35 -31 c-19 -16 -73 -65 -120
-108 -90 -82 -107 -97 -184 -162 -27 -23 -54 -47 -60 -52 -6 -6 -44 -39 -85
-75 -41 -36 -82 -72 -91 -80 -9 -8 -47 -42 -84 -75 -37 -33 -78 -69 -90 -80
-12 -11 -57 -51 -100 -90 -104 -93 -159 -146 -296 -280 -199 -194 -309 -314
-453 -495 -46 -57 -109 -144 -141 -195 -21 -33 -47 -72 -57 -87 -11 -15 -19
-30 -19 -34 0 -4 -13 -28 -28 -53 -45 -75 -140 -304 -157 -380 -56 -246 -62
-364 -29 -591 22 -156 134 -445 239 -615 195 -318 357 -496 499 -545 69 -25
110 -31 195 -33 98 -1 179 12 245 39 68 27 102 55 110 90 7 28 -16 79 -42 93
-20 11 -130 121 -168 168 l-26 33 447 0 446 0 -38 -46 c-20 -26 -72 -79 -115
-118 -89 -82 -103 -114 -68 -159 79 -100 383 -133 558 -60 152 63 394 361 550
678 101 204 150 362 177 570 12 91 6 274 -10 355 -3 14 -7 35 -10 48 -32 171
-144 434 -262 615 -51 78 -169 241 -207 285 -144 168 -210 239 -409 436 l-231
228 29 26 c17 13 64 55 105 92 77 69 145 128 238 209 30 25 64 55 76 66 12 11
55 49 96 85 110 95 198 178 355 335 337 337 523 629 563 885 11 71 7 299 -6
360 -30 135 -88 282 -163 410 -44 78 -158 238 -209 295 -82 93 -280 286 -345
337 -129 101 -149 109 -409 163 -10 3 -50 5 -90 6 -192 4 -287 -64 -242 -172
17 -40 27 -50 146 -147 93 -74 191 -167 185 -174 -2 -2 -149 -2 -327 -1 -178
2 -493 4 -700 6 -207 1 -379 5 -382 8 -8 7 123 127 219 201 84 64 97 87 92
153 -5 59 -38 92 -114 116 -46 14 -176 21 -238 13z m1452 -797 c138 -1 253 -4
255 -7 19 -24 92 -160 118 -219 30 -69 80 -244 80 -281 0 -15 -27 -16 -352
-14 -194 2 -717 5 -1161 8 -445 2 -811 7 -814 10 -4 3 5 54 20 112 27 111 126
329 171 377 l23 25 704 -4 c387 -3 817 -6 956 -7z m186 -818 c131 -1 240 -6
243 -10 10 -16 -87 -238 -108 -247 -5 -2 -8 -8 -8 -13 0 -13 -75 -119 -150
-211 -48 -59 -73 -82 -86 -80 -10 2 -375 5 -811 6 -622 2 -795 5 -807 15 -25
21 -160 201 -199 267 -48 81 -104 203 -112 247 l-7 35 904 -4 c496 -2 1010 -4
1141 -5z m-778 -2138 c137 -143 278 -303 298 -337 4 -8 -114 -11 -419 -13
-414 -2 -425 -2 -415 17 5 10 24 34 40 51 17 18 31 35 31 37 0 8 152 174 258
281 52 53 87 81 94 77 7 -4 58 -55 113 -113z m531 -691 c35 -61 99 -212 123
-291 25 -78 50 -197 44 -203 -3 -2 -154 -5 -336 -6 -183 -1 -551 -3 -819 -5
l-488 -3 5 29 c3 16 7 42 10 57 17 101 110 350 163 437 l19 30 627 0 627 0 25
-45z m170 -820 c-10 -75 -31 -163 -58 -244 -33 -100 -104 -264 -122 -283 -8
-9 -165 -13 -644 -15 l-633 -3 -43 90 c-58 120 -108 258 -121 330 -2 17 -8 44
-12 60 -5 17 -8 41 -8 55 l0 24 650 4 c357 2 651 4 652 5 1 1 78 2 172 2 l170
1 -3 -26z"/>
</g>
</svg>
